{
	"asset": {
		"generator": "Blocks",
		"version": "1.0",
		"copyright": "Unknown"
	},
	"buffers": {
		"model": {
			"byteLength": 722650,
			"type": "arraybuffer",
			"uri": "model.bin"
		}
	},
	"accessors": {
		"accessor_position_m0-PolyPaper23_-616624": {
			"bufferView": "vec3BufferView",
			"byteOffset": 0,
			"byteStride": 12,
			"componentType": 5126,
			"count": 6324,
			"max": [ 1.339998, 2.589984, 1.41533 ],
			"min": [ 0.6905494, 0.6569428, -0.6448491 ],
			"type": "VEC3"
		 },
		"accessor_normal_m0-PolyPaper23_-616624": {
			"bufferView": "vec3BufferView",
			"byteOffset": 75888,
			"byteStride": 12,
			"componentType": 5126,
			"count": 6324,
			"max": [ 1, 1, 1 ],
			"min": [ -1, -1, -1 ],
			"type": "VEC3"
		 },
		"accessor_color_m0-PolyPaper23_-616624": {
			"bufferView": "vec4BufferView",
			"byteOffset": 0,
			"byteStride": 16,
			"componentType": 5126,
			"count": 6324,
			"max": [ 1, 1, 1, 1 ],
			"min": [ 0.1019608, 0.1019608, 0.1019608, 1 ],
			"type": "VEC4"
		 },
		"accessor_indices_0_m0-PolyPaper23_-616624": {
			"bufferView": "ushortBufferView",
			"byteOffset": 0,
			"byteStride": 0,
			"componentType": 5123,
			"count": 9618,
			"max": [ 6323 ],
			"min": [ 0 ],
			"type": "SCALAR"
		 },
		"accessor_position_m1-PolyGem25_-616622": {
			"bufferView": "vec3BufferView",
			"byteOffset": 151776,
			"byteStride": 12,
			"componentType": 5126,
			"count": 24,
			"max": [ 1.280006, 2.610038, 0.09000428 ],
			"min": [ 1.160006, 2.490038, -0.02999572 ],
			"type": "VEC3"
		 },
		"accessor_normal_m1-PolyGem25_-616622": {
			"bufferView": "vec3BufferView",
			"byteOffset": 152064,
			"byteStride": 12,
			"componentType": 5126,
			"count": 24,
			"max": [ 1, 1, 0.9999999 ],
			"min": [ -1, -1, -0.9999999 ],
			"type": "VEC3"
		 },
		"accessor_color_m1-PolyGem25_-616622": {
			"bufferView": "vec4BufferView",
			"byteOffset": 101184,
			"byteStride": 16,
			"componentType": 5126,
			"count": 24,
			"max": [ 1, 1, 1, 1 ],
			"min": [ 1, 1, 1, 1 ],
			"type": "VEC4"
		 },
		"accessor_indices_0_m1-PolyGem25_-616622": {
			"bufferView": "ushortBufferView",
			"byteOffset": 19236,
			"byteStride": 0,
			"componentType": 5123,
			"count": 36,
			"max": [ 23 ],
			"min": [ 0 ],
			"type": "SCALAR"
		 },
		"accessor_position_m2-PolyPaper23_-614912": {
			"bufferView": "vec3BufferView",
			"byteOffset": 152352,
			"byteStride": 12,
			"componentType": 5126,
			"count": 9994,
			"max": [ 1.269981, 2.549975, 1.245248 ],
			"min": [ 0.7065045, 0.9299727, -0.05142092 ],
			"type": "VEC3"
		 },
		"accessor_normal_m2-PolyPaper23_-614912": {
			"bufferView": "vec3BufferView",
			"byteOffset": 272280,
			"byteStride": 12,
			"componentType": 5126,
			"count": 9994,
			"max": [ 1, 1, 1 ],
			"min": [ -1, -1, -1 ],
			"type": "VEC3"
		 },
		"accessor_color_m2-PolyPaper23_-614912": {
			"bufferView": "vec4BufferView",
			"byteOffset": 101568,
			"byteStride": 16,
			"componentType": 5126,
			"count": 9994,
			"max": [ 1, 1, 1, 1 ],
			"min": [ 0.1019608, 0.1019608, 0.1019608, 1 ],
			"type": "VEC4"
		 },
		"accessor_indices_0_m2-PolyPaper23_-614912": {
			"bufferView": "ushortBufferView",
			"byteOffset": 19308,
			"byteStride": 0,
			"componentType": 5123,
			"count": 14700,
			"max": [ 9993 ],
			"min": [ 0 ],
			"type": "SCALAR"
		 },
		"accessor_position_m3-PolyGlass24_-616626": {
			"bufferView": "vec3BufferView",
			"byteOffset": 392208,
			"byteStride": 12,
			"componentType": 5126,
			"count": 471,
			"max": [ 1.21269, 2.388044, 1.40733 ],
			"min": [ 0.6914971, 1.751539, -0.5747914 ],
			"type": "VEC3"
		 },
		"accessor_normal_m3-PolyGlass24_-616626": {
			"bufferView": "vec3BufferView",
			"byteOffset": 397860,
			"byteStride": 12,
			"componentType": 5126,
			"count": 471,
			"max": [ 0.9837438, 0.9659257, 1 ],
			"min": [ -0.9837438, -0.9659256, -1 ],
			"type": "VEC3"
		 },
		"accessor_color_m3-PolyGlass24_-616626": {
			"bufferView": "vec4BufferView",
			"byteOffset": 261472,
			"byteStride": 16,
			"componentType": 5126,
			"count": 471,
			"max": [ 0.8392157, 0.8392157, 0.8392157, 0.2509804 ],
			"min": [ 0.8392157, 0.8392157, 0.8392157, 0.2509804 ],
			"type": "VEC4"
		 },
		"accessor_indices_0_m3-PolyGlass24_-616626": {
			"bufferView": "ushortBufferView",
			"byteOffset": 48708,
			"byteStride": 0,
			"componentType": 5123,
			"count": 711,
			"max": [ 470 ],
			"min": [ 0 ],
			"type": "SCALAR"
		 }
	},
	"bufferViews": {
		"ushortBufferView": {
			"buffer": "model",
			"byteLength": 50130,
			"byteOffset": 0,
			"target": 34963
		},
		"vec3BufferView": {
			"buffer": "model",
			"byteLength": 403512,
			"byteOffset": 50130,
			"target": 34962
		},
		"vec4BufferView": {
			"buffer": "model",
			"byteLength": 269008,
			"byteOffset": 453642,
			"target": 34962
		}
	},
	"meshes": {
		"mesh_m0-PolyPaper23_-616624": {
			"name": "mesh_m0-PolyPaper23_-616624",
			"primitives": [
				{
					"attributes": {
						"POSITION": "accessor_position_m0-PolyPaper23_-616624",
						"NORMAL": "accessor_normal_m0-PolyPaper23_-616624",
						"COLOR": "accessor_color_m0-PolyPaper23_-616624"
					},
					"indices": "accessor_indices_0_m0-PolyPaper23_-616624",
					"material": "material_mat23",
					"mode": 4
				}
			]
		},
		"mesh_m1-PolyGem25_-616622": {
			"name": "mesh_m1-PolyGem25_-616622",
			"primitives": [
				{
					"attributes": {
						"POSITION": "accessor_position_m1-PolyGem25_-616622",
						"NORMAL": "accessor_normal_m1-PolyGem25_-616622",
						"COLOR": "accessor_color_m1-PolyGem25_-616622"
					},
					"indices": "accessor_indices_0_m1-PolyGem25_-616622",
					"material": "material_mat25",
					"mode": 4
				}
			]
		},
		"mesh_m2-PolyPaper23_-614912": {
			"name": "mesh_m2-PolyPaper23_-614912",
			"primitives": [
				{
					"attributes": {
						"POSITION": "accessor_position_m2-PolyPaper23_-614912",
						"NORMAL": "accessor_normal_m2-PolyPaper23_-614912",
						"COLOR": "accessor_color_m2-PolyPaper23_-614912"
					},
					"indices": "accessor_indices_0_m2-PolyPaper23_-614912",
					"material": "material_mat23",
					"mode": 4
				}
			]
		},
		"mesh_m3-PolyGlass24_-616626": {
			"name": "mesh_m3-PolyGlass24_-616626",
			"primitives": [
				{
					"attributes": {
						"POSITION": "accessor_position_m3-PolyGlass24_-616626",
						"NORMAL": "accessor_normal_m3-PolyGlass24_-616626",
						"COLOR": "accessor_color_m3-PolyGlass24_-616626"
					},
					"indices": "accessor_indices_0_m3-PolyGlass24_-616626",
					"material": "material_mat24",
					"mode": 4
				}
			]
		}
	},
	"shaders": {
		"vertex_mat23": {
			"type": 35633,
			"uri": "https://vr.google.com/shaders/w/vs.glsl"
		},
		"fragment_mat23": {
			"type": 35632,
			"uri": "https://vr.google.com/shaders/w/fs.glsl"
		},
		"vertex_mat25": {
			"type": 35633,
			"uri": "https://vr.google.com/shaders/w/gemVS.glsl"
		},
		"fragment_mat25": {
			"type": 35632,
			"uri": "https://vr.google.com/shaders/w/gemFS.glsl"
		},
		"vertex_mat24": {
			"type": 35633,
			"uri": "https://vr.google.com/shaders/w/glassVS.glsl"
		},
		"fragment_mat24": {
			"type": 35632,
			"uri": "https://vr.google.com/shaders/w/glassFS.glsl"
		}
	},
	"programs": {
		"program_mat23": {
			"attributes": [
				"a_position",
				"a_normal",
				"a_color"				
			],
			"vertexShader": "vertex_mat23",
			"fragmentShader": "fragment_mat23"
		},
		"program_mat25": {
			"attributes": [
				"a_position",
				"a_normal",
				"a_color"				
			],
			"vertexShader": "vertex_mat25",
			"fragmentShader": "fragment_mat25"
		},
		"program_mat24": {
			"attributes": [
				"a_position",
				"a_normal",
				"a_color"				
			],
			"vertexShader": "vertex_mat24",
			"fragmentShader": "fragment_mat24"
		}
	},
	"techniques": {
		"technique_mat23": {
			"program": "program_mat23",
			"extras": {"gvrss" : "https://vr.google.com/shaders/w/gvrss/paper.json"},
			"parameters": {
				"position": {
					"type": 35665,
					"semantic": "POSITION"
				},
				"normal": {
					"type": 35665,
					"semantic": "NORMAL"
				},
				"color": {
					"type": 35666,
					"semantic": "COLOR"
				},
				"modelViewMatrix": {
					"type": 35676,
					"semantic": "MODELVIEW"
				},
				"projectionMatrix": {
					"type": 35676,
					"semantic": "PROJECTION"
				},
				"normalMatrix": {
					"type": 35675,
					"semantic": "MODELVIEWINVERSETRANSPOSE"
				},
				"color": {
					"type": 35666
				},
				"roughness": {
					"type": 5126
				},
				"metallic": {
					"type": 5126
				},
				"light0Pos": {
					"type": 35666
				},
				"light0Color": {
					"type": 35666
				},
				"light1Pos": {
					"type": 35666
				},
				"light1Color": {
					"type": 35666
				}				
			},
			"attributes": {
				"a_position": "position",
				"a_normal": "normal",
				"a_color": "color"				
			},
			"uniforms": {
				"u_modelViewMatrix": "modelViewMatrix",
				"u_projectionMatrix": "projectionMatrix",
				"u_normalMatrix": "normalMatrix",
				"u_color": "color",
				"u_roughness": "roughness",
				"u_metallic": "metallic",
				"u_light0Pos": "light0Pos",
				"u_light0Color": "light0Color",
				"u_light1Pos": "light1Pos",
				"u_light1Color": "light1Color"				
			},
			"states": {
				"enable": [
					2929,
					2884
				],
				"functions": {
					"cullFace": [1029]
				}
			}
		},
		"technique_mat25": {
			"program": "program_mat25",
			"extras": {"gvrss" : "https://vr.google.com/shaders/w/gvrss/gem.json"},
			"parameters": {
				"position": {
					"type": 35665,
					"semantic": "POSITION"
				},
				"normal": {
					"type": 35665,
					"semantic": "NORMAL"
				},
				"color": {
					"type": 35666,
					"semantic": "COLOR"
				},
				"modelViewMatrix": {
					"type": 35676,
					"semantic": "MODELVIEW"
				},
				"projectionMatrix": {
					"type": 35676,
					"semantic": "PROJECTION"
				},
				"normalMatrix": {
					"type": 35675,
					"semantic": "MODELVIEWINVERSETRANSPOSE"
				},
				"color": {
					"type": 35666
				},
				"roughness": {
					"type": 5126
				},
				"metallic": {
					"type": 5126
				},
				"gem": {
					"type": 35678
				},
				"light0Pos": {
					"type": 35666
				},
				"light0Color": {
					"type": 35666
				},
				"light1Pos": {
					"type": 35666
				},
				"light1Color": {
					"type": 35666
				}				
			},
			"attributes": {
				"a_position": "position",
				"a_normal": "normal",
				"a_color": "color"				
			},
			"uniforms": {
				"u_modelViewMatrix": "modelViewMatrix",
				"u_projectionMatrix": "projectionMatrix",
				"u_normalMatrix": "normalMatrix",
				"u_color": "color",
				"u_roughness": "roughness",
				"u_metallic": "metallic",
				"u_gem": "gem",
				"u_light0Pos": "light0Pos",
				"u_light0Color": "light0Color",
				"u_light1Pos": "light1Pos",
				"u_light1Color": "light1Color"				
			},
			"states": {
				"enable": [
					2929,
					2884
				],
				"functions": {
					"cullFace": [1029]
				}
			}
		},
		"technique_mat24": {
			"program": "program_mat24",
			"extras": {"gvrss" : "https://vr.google.com/shaders/w/gvrss/glass.json"},
			"parameters": {
				"position": {
					"type": 35665,
					"semantic": "POSITION"
				},
				"normal": {
					"type": 35665,
					"semantic": "NORMAL"
				},
				"color": {
					"type": 35666,
					"semantic": "COLOR"
				},
				"modelViewMatrix": {
					"type": 35676,
					"semantic": "MODELVIEW"
				},
				"projectionMatrix": {
					"type": 35676,
					"semantic": "PROJECTION"
				},
				"normalMatrix": {
					"type": 35675,
					"semantic": "MODELVIEWINVERSETRANSPOSE"
				},
				"color": {
					"type": 35666
				},
				"roughness": {
					"type": 5126
				},
				"metallic": {
					"type": 5126
				},
				"light0Pos": {
					"type": 35666
				},
				"light0Color": {
					"type": 35666
				},
				"light1Pos": {
					"type": 35666
				},
				"light1Color": {
					"type": 35666
				}				
			},
			"attributes": {
				"a_position": "position",
				"a_normal": "normal",
				"a_color": "color"				
			},
			"uniforms": {
				"u_modelViewMatrix": "modelViewMatrix",
				"u_projectionMatrix": "projectionMatrix",
				"u_normalMatrix": "normalMatrix",
				"u_color": "color",
				"u_roughness": "roughness",
				"u_metallic": "metallic",
				"u_light0Pos": "light0Pos",
				"u_light0Color": "light0Color",
				"u_light1Pos": "light1Pos",
				"u_light1Color": "light1Color"				
			},
			"states": {
				"enable": [
					2929,
					3042
				],
				"functions": {
					"blendFuncSeparate": [775, 774, 773, 772],
					"depthMask": [true]
				}
			}
		}
	},
	"samplers": {
		"sampler_LINEAR_LINEAR_REPEAT": {
			"magFilter": 9729,
			"minFilter": 9987,
			"wrapS": 10497,
			"wrapT": 10497
		}
	},
	"textures": {
		"texture_mat25_gem": {
			"format": 6408,
			"internalFormat": 6408,
			"sampler": "sampler_LINEAR_LINEAR_REPEAT",
			"source": "image_mat25_gem",
			"target": 3553,
			"type": 5121
		}
	},
	"images": {
		"image_mat25_gem": {
			"uri": "https://vr.google.com/shaders/w/GemRefractions.png"
		}
	},
	"materials": {
		"material_mat23": {
			"technique": "technique_mat23",
			"values": {
				"color": [0.1019608, 0.1019608, 0.1019608, 1],
				"roughness": 0.72,
				"metallic": 0,
				"light0Pos": [-0.02, 4.11, -0.54, 0],
				"light0Color": [0.8, 0.8, 0.8, 0],
				"light1Pos": [0.02, -4.11, 0.54, 0],
				"light1Color": [0.64, 0.5647059, 0.5647059, 0]				
			},
			"name": "material_mat23"
		},
		"material_mat25": {
			"technique": "technique_mat25",
			"values": {
				"color": [1, 1, 1, 1],
				"roughness": 0.001,
				"metallic": 0,
				"gem": "texture_mat25_gem",
				"light0Pos": [-0.02, 4.11, -0.54, 0],
				"light0Color": [0.8, 0.8, 0.8, 0],
				"light1Pos": [0.02, -4.11, 0.54, 0],
				"light1Color": [0.64, 0.5647059, 0.5647059, 0]				
			},
			"name": "material_mat25"
		},
		"material_mat24": {
			"technique": "technique_mat24",
			"values": {
				"color": [0.8392157, 0.8392157, 0.8392157, 0.2509804],
				"roughness": 0,
				"metallic": 0,
				"light0Pos": [-0.02, 4.11, -0.54, 0],
				"light0Color": [0.8, 0.8, 0.8, 0],
				"light1Pos": [0.02, -4.11, 0.54, 0],
				"light1Color": [0.64, 0.5647059, 0.5647059, 0]				
			},
			"name": "material_mat24"
		}
	},
	"nodes": {
		"node_MeshObject702138112-PolyPaper23": {
			"name": "node_MeshObject702138112-PolyPaper23",
			"meshes": [
				"mesh_m0-PolyPaper23_-616624"
			],
			"matrix": [1, 0, 0, 0, 0, 1, 0, 0, 0, 0, 1, 0, 0, 0, 0, 1]
		},
		"node_MeshObject183418048-PolyGem25": {
			"name": "node_MeshObject183418048-PolyGem25",
			"meshes": [
				"mesh_m1-PolyGem25_-616622"
			],
			"matrix": [1, 0, 0, 0, 0, 1, 0, 0, 0, 0, 1, 0, 0, 0, 0, 1]
		},
		"node_MeshObject-1078531264-PolyPaper23": {
			"name": "node_MeshObject-1078531264-PolyPaper23",
			"meshes": [
				"mesh_m2-PolyPaper23_-614912"
			],
			"matrix": [1, 0, 0, 0, 0, 1, 0, 0, 0, 0, 1, 0, 0, 0, 0, 1]
		},
		"node_MeshObject1220858176-PolyGlass24": {
			"name": "node_MeshObject1220858176-PolyGlass24",
			"meshes": [
				"mesh_m3-PolyGlass24_-616626"
			],
			"matrix": [1, 0, 0, 0, 0, 1, 0, 0, 0, 0, 1, 0, 0, 0, 0, 1]
		}
	},
	"scene": "defaultScene",
	"scenes": {
		"defaultScene": {
			"nodes": [
				"node_MeshObject702138112-PolyPaper23",
				"node_MeshObject183418048-PolyGem25",
				"node_MeshObject-1078531264-PolyPaper23",
				"node_MeshObject1220858176-PolyGlass24"
			],
			"extras": {

			}
		}
	}
}